# xmcd
#
# Track frame offsets: 
#        150
#        14082
#        25543
#        37567
#        47052
#        59820
#        72961
#        86606
#        95136
#        109278
#        118737
#        127303
#        137985
#        150536
#        165974
#        182882
#        194297
#        202065
#        208584
#        221341
#        231906
#
# Disc length: 3206 seconds
#
# Revision: 0
# Processed by: cddbd v1.4PL0 Copyright (c) Steve Scherf et al.
# Submitted via: ExactAudioCopy v0.90b4
#
DISCID=380c8415
DTITLE=Jurij Nikulin - Grand collection
DYEAR=2002
DGENRE=Country
TTITLE0=Pesnja pro zaicev
TTITLE1=Postoi, parovoz
TTITLE2=Eslji b ja bil sultan
TTITLE3=Transvalj
TTITLE4=Moij starij cirk
TTITLE5=Nocjnoj cvetnoij buljvar
TTITLE6=Teplushka
TTITLE7=Tovarish inspektor
TTITLE8=Kolibeljnaja
TTITLE9=Denj rozjdenjija
TTITLE10=Tovarish cirk
TTITLE11=Starij klovn
TTITLE12=Neobiknovenij otelj
TTITLE13=Schegol
TTITLE14=Pojezd Vorkuta-Ljenjingrad
TTITLE15=Ti hodjish pjanaja
TTITLE16=Novobranci
TTITLE17=Sizju ja celij denj, skucjaju
TTITLE18=Beregitje klovnov
TTITLE19=Samogonshchiki
TTITLE20=Marsh
EXTD=
EXTT0=
EXTT1=
EXTT2=
EXTT3=
EXTT4=
EXTT5=
EXTT6=
EXTT7=
EXTT8=
EXTT9=
EXTT10=
EXTT11=
EXTT12=
EXTT13=
EXTT14=
EXTT15=
EXTT16=
EXTT17=
EXTT18=
EXTT19=
EXTT20=
PLAYORDER=
